<svg width="284" height="56" viewBox="0 0 284 56" fill="none" xmlns="http://www.w3.org/2000/svg">
<rect width="100" height="35" fill="#2BE080"/>
<path d="M30.1689 14H29.2002L27.2002 15.3281V16.3125L29.1533 15.0156H29.2002V22H30.1689V14ZM36.501 16H35.5791V22H36.501V19.4375H39.376V22H40.2979V16H39.376V18.5781H36.501V16ZM44.4971 22.125C45.7158 22.125 46.6064 21.5156 46.8877 20.6094L45.9971 20.3594C45.7627 20.9844 45.2197 21.2969 44.4971 21.2969C43.415 21.2969 42.6689 20.5977 42.626 19.3125H46.9814V18.9219C46.9814 16.6875 45.6533 15.9219 44.4033 15.9219C42.7783 15.9219 41.7002 17.2031 41.7002 19.0469C41.7002 20.8906 42.7627 22.125 44.4971 22.125ZM42.626 18.5156C42.6885 17.582 43.3486 16.75 44.4033 16.75C45.4033 16.75 46.0439 17.5 46.0439 18.5156H42.626ZM47.7432 23.7188H48.665V22H53.1025V23.7188H54.0244V21.1406H53.1025V16H49.29L49.0869 18.375C48.9424 20.0547 48.7275 20.6328 48.2432 21.1406H47.7432V23.7188ZM49.29 21.1406C49.7119 20.5859 49.8643 19.6289 49.9932 18.375L50.1494 16.8594H52.1807V21.1406H49.29ZM57.7637 22.125C58.9824 22.125 59.873 21.5156 60.1543 20.6094L59.2637 20.3594C59.0293 20.9844 58.4863 21.2969 57.7637 21.2969C56.6816 21.2969 55.9355 20.5977 55.8926 19.3125H60.248V18.9219C60.248 16.6875 58.9199 15.9219 57.6699 15.9219C56.0449 15.9219 54.9668 17.2031 54.9668 19.0469C54.9668 20.8906 56.0293 22.125 57.7637 22.125ZM55.8926 18.5156C55.9551 17.582 56.6152 16.75 57.6699 16.75C58.6699 16.75 59.3105 17.5 59.3105 18.5156H55.8926ZM61.1191 22H61.4316C62.7598 22 63.1426 20.9688 63.2285 19L63.3223 16.8594H65.5254V22H66.4473V16H62.4473L62.3379 18.6562C62.2598 20.6719 62.0566 21.1406 61.3379 21.1406H61.1191V22ZM71.748 22H72.623V16H70.1543C68.8613 16 68.0762 16.6758 68.0762 17.7812C68.0762 18.6055 68.4902 19.1914 69.2129 19.4375L67.748 22H68.748L70.1387 19.5625H71.748V22ZM71.748 18.7031H70.0449C69.3926 18.7031 68.998 18.3555 68.998 17.7812C68.998 17.1992 69.4355 16.8438 70.1543 16.8438H71.748V18.7031Z" fill="black"/>
<rect x="100" width="184" height="35" fill="#F2F2F2"/>
<path d="M168.003 20.3594H171.769V22H172.691V20.3594H173.785V19.5H172.691V14H171.519L168.003 19.5625V20.3594ZM171.769 19.5H169.05V19.4375L171.707 15.2344H171.769V19.5ZM179.28 16H178.358V22H179.28V19.4375H182.155V22H183.077V16H182.155V18.5781H179.28V16ZM187.276 22.125C188.495 22.125 189.385 21.5156 189.667 20.6094L188.776 20.3594C188.542 20.9844 187.999 21.2969 187.276 21.2969C186.194 21.2969 185.448 20.5977 185.405 19.3125H189.76V18.9219C189.76 16.6875 188.432 15.9219 187.182 15.9219C185.557 15.9219 184.479 17.2031 184.479 19.0469C184.479 20.8906 185.542 22.125 187.276 22.125ZM185.405 18.5156C185.467 17.582 186.127 16.75 187.182 16.75C188.182 16.75 188.823 17.5 188.823 18.5156H185.405ZM190.522 23.7188H191.444V22H195.881V23.7188H196.803V21.1406H195.881V16H192.069L191.866 18.375C191.721 20.0547 191.506 20.6328 191.022 21.1406H190.522V23.7188ZM192.069 21.1406C192.491 20.5859 192.643 19.6289 192.772 18.375L192.928 16.8594H194.959V21.1406H192.069ZM200.542 22.125C201.761 22.125 202.652 21.5156 202.933 20.6094L202.042 20.3594C201.808 20.9844 201.265 21.2969 200.542 21.2969C199.46 21.2969 198.714 20.5977 198.671 19.3125H203.027V18.9219C203.027 16.6875 201.699 15.9219 200.449 15.9219C198.824 15.9219 197.746 17.2031 197.746 19.0469C197.746 20.8906 198.808 22.125 200.542 22.125ZM198.671 18.5156C198.734 17.582 199.394 16.75 200.449 16.75C201.449 16.75 202.089 17.5 202.089 18.5156H198.671ZM203.898 22H204.21C205.539 22 205.921 20.9688 206.007 19L206.101 16.8594H208.304V22H209.226V16H205.226L205.117 18.6562C205.039 20.6719 204.835 21.1406 204.117 21.1406H203.898V22ZM211.839 20.6406V16H210.917V22H211.996L214.871 17.3594V22H215.792V16H214.73L211.839 20.6406Z" fill="black"/>
<path d="M167.831 55H168.953V51.381H172.781V50.413H168.953V47.993H173.012V47.025H167.831V55ZM176.78 49.06C176.659 49.049 176.582 49.049 176.483 49.049C175.702 49.082 175.108 49.445 174.811 50.116V49.082H173.832V55H174.833V51.898C174.833 50.589 175.295 50.083 176.219 50.083C176.384 50.083 176.571 50.094 176.78 50.127V49.06ZM178.317 52.063C178.317 50.446 179.175 49.863 180.088 49.863C181.001 49.863 181.859 50.479 181.859 52.063C181.859 53.581 181.001 54.263 180.088 54.263C179.175 54.263 178.317 53.647 178.317 52.063ZM180.088 48.983C178.713 48.983 177.25 49.918 177.25 52.063C177.25 54.208 178.713 55.143 180.088 55.143C181.463 55.143 182.926 54.208 182.926 52.063C182.926 49.918 181.463 48.983 180.088 48.983ZM185.124 49.082H184.123V55H185.124V51.788C185.124 50.512 185.718 49.852 186.686 49.852C187.83 49.852 187.984 50.644 187.984 51.557V55H188.985V51.26C188.985 49.907 188.468 48.983 187.038 48.983C186.037 48.983 185.465 49.412 185.124 49.973V49.082ZM190.768 49.082H189.833V49.885H190.768V53.515C190.768 54.747 191.032 55 192.165 55H192.891V54.164H192.385C191.813 54.164 191.769 54.01 191.769 53.394V49.885H192.891V49.082H191.769V47.597H190.768V49.082ZM197.024 52.459V51.513H193.526V52.459H197.024ZM203.743 52.371C203.864 50.49 202.797 48.983 200.982 48.983C199.365 48.983 198.111 50.171 198.111 52.052C198.111 53.801 199.145 55.143 201.015 55.143C202.456 55.143 203.402 54.296 203.666 53.284H202.632C202.379 53.867 201.895 54.263 201.015 54.263C200.146 54.263 199.222 53.647 199.189 52.371H203.743ZM200.982 49.841C202.049 49.841 202.654 50.677 202.687 51.513H199.2C199.288 50.325 200.102 49.841 200.982 49.841ZM205.91 49.082H204.909V55H205.91V51.788C205.91 50.512 206.504 49.852 207.472 49.852C208.616 49.852 208.77 50.644 208.77 51.557V55H209.771V51.26C209.771 49.907 209.254 48.983 207.824 48.983C206.823 48.983 206.251 49.412 205.91 49.973V49.082ZM215.328 50.017C214.965 49.39 214.349 48.983 213.392 48.983C212.028 48.983 210.862 50.127 210.862 52.063C210.862 54.032 212.028 55.143 213.392 55.143C214.349 55.143 214.965 54.736 215.328 54.109V55H216.329V47.025H215.328V50.017ZM215.372 52.063C215.372 53.625 214.536 54.285 213.645 54.285C212.622 54.285 211.951 53.482 211.951 52.063C211.951 50.644 212.622 49.841 213.645 49.841C214.536 49.841 215.372 50.501 215.372 52.063Z" fill="#A0A0A0"/>
<path d="M26.4753 55H29.6213C31.2163 55 32.4813 54.34 32.4813 52.646C32.4813 51.667 32.0303 51.073 31.2713 50.754C31.8323 50.435 32.1513 49.753 32.1513 48.994C32.1513 47.41 30.8313 47.025 29.3463 47.025H26.4753V55ZM27.5973 51.326H29.5663C30.7653 51.326 31.3263 51.722 31.3263 52.657C31.3263 53.57 30.7763 54.054 29.6323 54.054H27.5973V51.326ZM27.5973 47.971H29.5223C30.4133 47.971 31.0183 48.323 31.0183 49.148C31.0183 50.083 30.4463 50.435 29.5223 50.435H27.5973V47.971ZM37.4409 52.525C37.4409 53.922 36.5499 54.351 35.6149 54.351C34.8999 54.351 34.4709 53.977 34.4709 53.416C34.4709 52.602 35.6259 52.327 37.4409 52.151V52.525ZM35.3949 55.143C36.4509 55.143 37.0559 54.802 37.4189 54.186C37.4299 54.538 37.4629 54.78 37.4959 55H38.5079C38.3869 54.439 38.3429 53.768 38.3539 52.767L38.3649 51.403C38.3759 49.731 37.6499 48.961 36.0109 48.961C34.8669 48.961 33.7229 49.676 33.6349 50.952H34.6689C34.7129 50.215 35.1859 49.775 36.0219 49.775C36.7699 49.775 37.3639 50.127 37.3639 51.216V51.359C34.9439 51.623 33.3599 52.041 33.3599 53.438C33.3599 54.527 34.2839 55.143 35.3949 55.143ZM42.3095 48.983C40.5605 48.983 39.4495 50.292 39.4495 52.052C39.4495 53.856 40.5055 55.143 42.2105 55.143C43.5965 55.143 44.6415 54.186 44.8505 53.075H43.8165C43.6735 53.691 43.0905 54.263 42.2435 54.263C41.3635 54.263 40.5385 53.537 40.5385 52.041C40.5385 50.556 41.3635 49.863 42.2435 49.863C43.0245 49.863 43.6295 50.358 43.7725 51.062H44.7845C44.6415 50.05 43.7615 48.983 42.3095 48.983ZM45.9795 47.025V55H46.9805V53.02L47.6735 52.272L49.6865 55H50.9075L48.3445 51.535L50.5995 49.082H49.3675L46.9805 51.744V47.025H45.9795ZM54.3792 52.459V51.513H50.8812V52.459H54.3792ZM61.0981 52.371C61.2191 50.49 60.1521 48.983 58.3371 48.983C56.7201 48.983 55.4661 50.171 55.4661 52.052C55.4661 53.801 56.5001 55.143 58.3701 55.143C59.8111 55.143 60.7571 54.296 61.0211 53.284H59.9871C59.7341 53.867 59.2501 54.263 58.3701 54.263C57.5011 54.263 56.5771 53.647 56.5441 52.371H61.0981ZM58.3371 49.841C59.4041 49.841 60.0091 50.677 60.0421 51.513H56.5551C56.6431 50.325 57.4571 49.841 58.3371 49.841ZM63.2657 49.082H62.2647V55H63.2657V51.788C63.2657 50.512 63.8597 49.852 64.8277 49.852C65.9717 49.852 66.1257 50.644 66.1257 51.557V55H67.1267V51.26C67.1267 49.907 66.6097 48.983 65.1797 48.983C64.1787 48.983 63.6067 49.412 63.2657 49.973V49.082ZM72.683 50.017C72.32 49.39 71.704 48.983 70.747 48.983C69.383 48.983 68.217 50.127 68.217 52.063C68.217 54.032 69.383 55.143 70.747 55.143C71.704 55.143 72.32 54.736 72.683 54.109V55H73.684V47.025H72.683V50.017ZM72.727 52.063C72.727 53.625 71.891 54.285 71 54.285C69.977 54.285 69.306 53.482 69.306 52.063C69.306 50.644 69.977 49.841 71 49.841C71.891 49.841 72.727 50.501 72.727 52.063Z" fill="#A0A0A0"/>
</svg>
