<svg width="668" height="64" viewBox="0 0 668 64" fill="none" xmlns="http://www.w3.org/2000/svg">
<rect width="140" height="36" fill="#2BE080"/>
<path d="M44.7605 12.8182H43.5275L40.9821 14.5085V15.7614L43.4679 14.1108H43.5275V23H44.7605V12.8182ZM52.8194 15.3636H51.6461V23H52.8194V19.7386H56.4785V23H57.6518V15.3636H56.4785V18.6449H52.8194V15.3636ZM62.9963 23.1591C64.5474 23.1591 65.6809 22.3835 66.0389 21.2301L64.9054 20.9119C64.6071 21.7074 63.916 22.1051 62.9963 22.1051C61.6191 22.1051 60.6696 21.2152 60.6149 19.5795H66.1582V19.0824C66.1582 16.2386 64.4679 15.2642 62.877 15.2642C60.8088 15.2642 59.4366 16.8949 59.4366 19.2415C59.4366 21.5881 60.7889 23.1591 62.9963 23.1591ZM60.6149 18.5653C60.6944 17.3771 61.5346 16.3182 62.877 16.3182C64.1497 16.3182 64.965 17.2727 64.965 18.5653H60.6149ZM67.1277 25.1875H68.301V23H73.9487V25.1875H75.122V21.9062H73.9487V15.3636H69.0964L68.8379 18.3864C68.6539 20.5241 68.3805 21.2599 67.764 21.9062H67.1277V25.1875ZM69.0964 21.9062C69.6333 21.2003 69.8272 19.9822 69.9913 18.3864L70.1902 16.4574H72.7754V21.9062H69.0964ZM79.881 23.1591C81.4322 23.1591 82.5657 22.3835 82.9237 21.2301L81.7901 20.9119C81.4918 21.7074 80.8008 22.1051 79.881 22.1051C78.5039 22.1051 77.5543 21.2152 77.4996 19.5795H83.043V19.0824C83.043 16.2386 81.3526 15.2642 79.7617 15.2642C77.6935 15.2642 76.3214 16.8949 76.3214 19.2415C76.3214 21.5881 77.6737 23.1591 79.881 23.1591ZM77.4996 18.5653C77.5792 17.3771 78.4194 16.3182 79.7617 16.3182C81.0344 16.3182 81.8498 17.2727 81.8498 18.5653H77.4996ZM84.1516 23H84.5494C86.2397 23 86.7269 21.6875 86.8363 19.1818L86.9556 16.4574H89.7596V23H90.9329V15.3636H85.842L85.7028 18.7443C85.6033 21.3097 85.3448 21.9062 84.43 21.9062H84.1516V23ZM97.6793 23H98.793V15.3636H95.6509C94.0053 15.3636 93.006 16.2237 93.006 17.6307C93.006 18.6797 93.533 19.4254 94.4528 19.7386L92.5884 23H93.8612L95.631 19.8977H97.6793V23ZM97.6793 18.804H95.5117C94.6815 18.804 94.1793 18.3615 94.1793 17.6307C94.1793 16.8899 94.7362 16.4375 95.6509 16.4375H97.6793V18.804Z" fill="black"/>
<rect x="140" width="528" height="36" fill="#F2F2F2"/>
<path d="M373.459 20.9119H378.251V23H379.424V20.9119H380.817V19.8182H379.424V12.8182H377.933L373.459 19.8977V20.9119ZM378.251 19.8182H374.791V19.7386L378.172 14.3892H378.251V19.8182ZM387.81 15.3636H386.637V23H387.81V19.7386H391.469V23H392.643V15.3636H391.469V18.6449H387.81V15.3636ZM397.987 23.1591C399.538 23.1591 400.672 22.3835 401.03 21.2301L399.896 20.9119C399.598 21.7074 398.907 22.1051 397.987 22.1051C396.61 22.1051 395.66 21.2152 395.606 19.5795H401.149V19.0824C401.149 16.2386 399.459 15.2642 397.868 15.2642C395.8 15.2642 394.427 16.8949 394.427 19.2415C394.427 21.5881 395.78 23.1591 397.987 23.1591ZM395.606 18.5653C395.685 17.3771 396.526 16.3182 397.868 16.3182C399.141 16.3182 399.956 17.2727 399.956 18.5653H395.606ZM402.119 25.1875H403.292V23H408.94V25.1875H410.113V21.9062H408.94V15.3636H404.087L403.829 18.3864C403.645 20.5241 403.371 21.2599 402.755 21.9062H402.119V25.1875ZM404.087 21.9062C404.624 21.2003 404.818 19.9822 404.982 18.3864L405.181 16.4574H407.766V21.9062H404.087ZM414.872 23.1591C416.423 23.1591 417.557 22.3835 417.915 21.2301L416.781 20.9119C416.483 21.7074 415.792 22.1051 414.872 22.1051C413.495 22.1051 412.545 21.2152 412.491 19.5795H418.034V19.0824C418.034 16.2386 416.344 15.2642 414.753 15.2642C412.684 15.2642 411.312 16.8949 411.312 19.2415C411.312 21.5881 412.665 23.1591 414.872 23.1591ZM412.491 18.5653C412.57 17.3771 413.41 16.3182 414.753 16.3182C416.025 16.3182 416.841 17.2727 416.841 18.5653H412.491ZM419.143 23H419.54C421.231 23 421.718 21.6875 421.827 19.1818L421.946 16.4574H424.75V23H425.924V15.3636H420.833L420.694 18.7443C420.594 21.3097 420.336 21.9062 419.421 21.9062H419.143V23ZM429.25 21.2699V15.3636H428.076V23H429.449L433.108 17.0938V23H434.281V15.3636H432.929L429.25 21.2699Z" fill="black"/>
<path d="M373.239 63H374.667V58.394H379.539V57.162H374.667V54.082H379.833V52.85H373.239V63ZM384.629 55.44C384.475 55.426 384.377 55.426 384.251 55.426C383.257 55.468 382.501 55.93 382.123 56.784V55.468H380.877V63H382.151V59.052C382.151 57.386 382.739 56.742 383.915 56.742C384.125 56.742 384.363 56.756 384.629 56.798V55.44ZM386.585 59.262C386.585 57.204 387.677 56.462 388.839 56.462C390.001 56.462 391.093 57.246 391.093 59.262C391.093 61.194 390.001 62.062 388.839 62.062C387.677 62.062 386.585 61.278 386.585 59.262ZM388.839 55.342C387.089 55.342 385.227 56.532 385.227 59.262C385.227 61.992 387.089 63.182 388.839 63.182C390.589 63.182 392.451 61.992 392.451 59.262C392.451 56.532 390.589 55.342 388.839 55.342ZM395.249 55.468H393.975V63H395.249V58.912C395.249 57.288 396.005 56.448 397.237 56.448C398.693 56.448 398.889 57.456 398.889 58.618V63H400.163V58.24C400.163 56.518 399.505 55.342 397.685 55.342C396.411 55.342 395.683 55.888 395.249 56.602V55.468ZM402.433 55.468H401.243V56.49H402.433V61.11C402.433 62.678 402.769 63 404.211 63H405.135V61.936H404.491C403.763 61.936 403.707 61.74 403.707 60.956V56.49H405.135V55.468H403.707V53.578H402.433V55.468ZM410.394 59.766V58.562H405.942V59.766H410.394ZM418.945 59.654C419.099 57.26 417.741 55.342 415.431 55.342C413.373 55.342 411.777 56.854 411.777 59.248C411.777 61.474 413.093 63.182 415.473 63.182C417.307 63.182 418.511 62.104 418.847 60.816H417.531C417.209 61.558 416.593 62.062 415.473 62.062C414.367 62.062 413.191 61.278 413.149 59.654H418.945ZM415.431 56.434C416.789 56.434 417.559 57.498 417.601 58.562H413.163C413.275 57.05 414.311 56.434 415.431 56.434ZM421.704 55.468H420.43V63H421.704V58.912C421.704 57.288 422.46 56.448 423.692 56.448C425.148 56.448 425.344 57.456 425.344 58.618V63H426.618V58.24C426.618 56.518 425.96 55.342 424.14 55.342C422.866 55.342 422.138 55.888 421.704 56.602V55.468ZM433.69 56.658C433.228 55.86 432.444 55.342 431.226 55.342C429.49 55.342 428.006 56.798 428.006 59.262C428.006 61.768 429.49 63.182 431.226 63.182C432.444 63.182 433.228 62.664 433.69 61.866V63H434.964V52.85H433.69V56.658ZM433.746 59.262C433.746 61.25 432.682 62.09 431.548 62.09C430.246 62.09 429.392 61.068 429.392 59.262C429.392 57.456 430.246 56.434 431.548 56.434C432.682 56.434 433.746 57.274 433.746 59.262Z" fill="#A0A0A0"/>
<path d="M40.0595 63H44.0635C46.0935 63 47.7035 62.16 47.7035 60.004C47.7035 58.758 47.1295 58.002 46.1635 57.596C46.8775 57.19 47.2835 56.322 47.2835 55.356C47.2835 53.34 45.6035 52.85 43.7135 52.85H40.0595V63ZM41.4875 58.324H43.9935C45.5195 58.324 46.2335 58.828 46.2335 60.018C46.2335 61.18 45.5335 61.796 44.0775 61.796H41.4875V58.324ZM41.4875 54.054H43.9375C45.0715 54.054 45.8415 54.502 45.8415 55.552C45.8415 56.742 45.1135 57.19 43.9375 57.19H41.4875V54.054ZM54.0157 59.85C54.0157 61.628 52.8817 62.174 51.6917 62.174C50.7817 62.174 50.2357 61.698 50.2357 60.984C50.2357 59.948 51.7057 59.598 54.0157 59.374V59.85ZM51.4117 63.182C52.7557 63.182 53.5257 62.748 53.9877 61.964C54.0017 62.412 54.0437 62.72 54.0857 63H55.3737C55.2197 62.286 55.1637 61.432 55.1777 60.158L55.1917 58.422C55.2057 56.294 54.2817 55.314 52.1957 55.314C50.7397 55.314 49.2837 56.224 49.1717 57.848H50.4877C50.5437 56.91 51.1457 56.35 52.2097 56.35C53.1617 56.35 53.9177 56.798 53.9177 58.184V58.366C50.8377 58.702 48.8217 59.234 48.8217 61.012C48.8217 62.398 49.9977 63.182 51.4117 63.182ZM60.212 55.342C57.986 55.342 56.572 57.008 56.572 59.248C56.572 61.544 57.916 63.182 60.086 63.182C61.85 63.182 63.18 61.964 63.446 60.55H62.13C61.948 61.334 61.206 62.062 60.128 62.062C59.008 62.062 57.958 61.138 57.958 59.234C57.958 57.344 59.008 56.462 60.128 56.462C61.122 56.462 61.892 57.092 62.074 57.988H63.362C63.18 56.7 62.06 55.342 60.212 55.342ZM64.883 52.85V63H66.157V60.48L67.039 59.528L69.601 63H71.155L67.893 58.59L70.763 55.468H69.195L66.157 58.856V52.85H64.883ZM75.5735 59.766V58.562H71.1215V59.766H75.5735ZM84.1248 59.654C84.2788 57.26 82.9208 55.342 80.6108 55.342C78.5528 55.342 76.9568 56.854 76.9568 59.248C76.9568 61.474 78.2728 63.182 80.6528 63.182C82.4868 63.182 83.6908 62.104 84.0268 60.816H82.7108C82.3888 61.558 81.7728 62.062 80.6528 62.062C79.5468 62.062 78.3708 61.278 78.3288 59.654H84.1248ZM80.6108 56.434C81.9688 56.434 82.7388 57.498 82.7808 58.562H78.3428C78.4548 57.05 79.4908 56.434 80.6108 56.434ZM86.8836 55.468H85.6096V63H86.8836V58.912C86.8836 57.288 87.6396 56.448 88.8716 56.448C90.3276 56.448 90.5236 57.456 90.5236 58.618V63H91.7976V58.24C91.7976 56.518 91.1396 55.342 89.3196 55.342C88.0456 55.342 87.3176 55.888 86.8836 56.602V55.468ZM98.8693 56.658C98.4073 55.86 97.6233 55.342 96.4053 55.342C94.6693 55.342 93.1853 56.798 93.1853 59.262C93.1853 61.768 94.6693 63.182 96.4053 63.182C97.6233 63.182 98.4073 62.664 98.8693 61.866V63H100.143V52.85H98.8693V56.658ZM98.9253 59.262C98.9253 61.25 97.8613 62.09 96.7273 62.09C95.4253 62.09 94.5713 61.068 94.5713 59.262C94.5713 57.456 95.4253 56.434 96.7273 56.434C97.8613 56.434 98.9253 57.274 98.9253 59.262Z" fill="#A0A0A0"/>
</svg>
