<svg width="1140" height="65" viewBox="0 0 1140 65" fill="none" xmlns="http://www.w3.org/2000/svg">
<rect width="228" height="36" fill="#2BE080"/>
<path d="M88.7605 12.8182H87.5275L84.9821 14.5085V15.7614L87.4679 14.1108H87.5275V23H88.7605V12.8182ZM96.8194 15.3636H95.6461V23H96.8194V19.7386H100.479V23H101.652V15.3636H100.479V18.6449H96.8194V15.3636ZM106.996 23.1591C108.547 23.1591 109.681 22.3835 110.039 21.2301L108.905 20.9119C108.607 21.7074 107.916 22.1051 106.996 22.1051C105.619 22.1051 104.67 21.2152 104.615 19.5795H110.158V19.0824C110.158 16.2386 108.468 15.2642 106.877 15.2642C104.809 15.2642 103.437 16.8949 103.437 19.2415C103.437 21.5881 104.789 23.1591 106.996 23.1591ZM104.615 18.5653C104.694 17.3771 105.535 16.3182 106.877 16.3182C108.15 16.3182 108.965 17.2727 108.965 18.5653H104.615ZM111.128 25.1875H112.301V23H117.949V25.1875H119.122V21.9062H117.949V15.3636H113.096L112.838 18.3864C112.654 20.5241 112.381 21.2599 111.764 21.9062H111.128V25.1875ZM113.096 21.9062C113.633 21.2003 113.827 19.9822 113.991 18.3864L114.19 16.4574H116.775V21.9062H113.096ZM123.881 23.1591C125.432 23.1591 126.566 22.3835 126.924 21.2301L125.79 20.9119C125.492 21.7074 124.801 22.1051 123.881 22.1051C122.504 22.1051 121.554 21.2152 121.5 19.5795H127.043V19.0824C127.043 16.2386 125.353 15.2642 123.762 15.2642C121.694 15.2642 120.321 16.8949 120.321 19.2415C120.321 21.5881 121.674 23.1591 123.881 23.1591ZM121.5 18.5653C121.579 17.3771 122.419 16.3182 123.762 16.3182C125.034 16.3182 125.85 17.2727 125.85 18.5653H121.5ZM128.152 23H128.549C130.24 23 130.727 21.6875 130.836 19.1818L130.956 16.4574H133.76V23H134.933V15.3636H129.842L129.703 18.7443C129.603 21.3097 129.345 21.9062 128.43 21.9062H128.152V23ZM141.679 23H142.793V15.3636H139.651C138.005 15.3636 137.006 16.2237 137.006 17.6307C137.006 18.6797 137.533 19.4254 138.453 19.7386L136.588 23H137.861L139.631 19.8977H141.679V23ZM141.679 18.804H139.512C138.681 18.804 138.179 18.3615 138.179 17.6307C138.179 16.8899 138.736 16.4375 139.651 16.4375H141.679V18.804Z" fill="black"/>
<rect x="228" width="912" height="36" fill="#F2F2F2"/>
<path d="M653.459 20.9119H658.252V23H659.425V20.9119H660.817V19.8182H659.425V12.8182H657.933L653.459 19.8977V20.9119ZM658.252 19.8182H654.791V19.7386L658.172 14.3892H658.252V19.8182ZM667.811 15.3636H666.637V23H667.811V19.7386H671.47V23H672.643V15.3636H671.47V18.6449H667.811V15.3636ZM677.987 23.1591C679.539 23.1591 680.672 22.3835 681.03 21.2301L679.897 20.9119C679.598 21.7074 678.907 22.1051 677.987 22.1051C676.61 22.1051 675.661 21.2152 675.606 19.5795H681.149V19.0824C681.149 16.2386 679.459 15.2642 677.868 15.2642C675.8 15.2642 674.428 16.8949 674.428 19.2415C674.428 21.5881 675.78 23.1591 677.987 23.1591ZM675.606 18.5653C675.686 17.3771 676.526 16.3182 677.868 16.3182C679.141 16.3182 679.956 17.2727 679.956 18.5653H675.606ZM682.119 25.1875H683.292V23H688.94V25.1875H690.113V21.9062H688.94V15.3636H684.088L683.829 18.3864C683.645 20.5241 683.372 21.2599 682.755 21.9062H682.119V25.1875ZM684.088 21.9062C684.625 21.2003 684.818 19.9822 684.983 18.3864L685.181 16.4574H687.767V21.9062H684.088ZM694.872 23.1591C696.423 23.1591 697.557 22.3835 697.915 21.2301L696.781 20.9119C696.483 21.7074 695.792 22.1051 694.872 22.1051C693.495 22.1051 692.546 21.2152 692.491 19.5795H698.034V19.0824C698.034 16.2386 696.344 15.2642 694.753 15.2642C692.685 15.2642 691.313 16.8949 691.313 19.2415C691.313 21.5881 692.665 23.1591 694.872 23.1591ZM692.491 18.5653C692.57 17.3771 693.411 16.3182 694.753 16.3182C696.026 16.3182 696.841 17.2727 696.841 18.5653H692.491ZM699.143 23H699.541C701.231 23 701.718 21.6875 701.828 19.1818L701.947 16.4574H704.751V23H705.924V15.3636H700.833L700.694 18.7443C700.595 21.3097 700.336 21.9062 699.421 21.9062H699.143V23ZM709.25 21.2699V15.3636H708.077V23H709.449L713.108 17.0938V23H714.281V15.3636H712.929L709.25 21.2699Z" fill="black"/>
<path d="M83.0239 64H86.9266C89.2931 64 90.3619 62.8217 90.3619 61.2607C90.3619 59.6847 89.2583 58.7947 88.249 58.7401V58.6406C89.1837 58.402 89.9642 57.7656 89.9642 56.4929C89.9642 54.9865 88.9202 53.8182 86.7526 53.8182H83.0239V64ZM84.5601 62.6825V59.4212H86.8321C88.0651 59.4212 88.8357 60.2166 88.8357 61.1861C88.8357 62.0412 88.254 62.6825 86.7774 62.6825H84.5601ZM84.5601 58.223V55.1257H86.6581C87.8762 55.1257 88.4578 55.767 88.4578 56.6122C88.4578 57.5966 87.6524 58.223 86.6183 58.223H84.5601ZM94.287 64.169C95.5498 64.169 96.2607 63.5277 96.5441 62.956H96.6038V64H98.0555V58.929C98.0555 56.7067 96.3055 56.2642 95.0924 56.2642C93.7103 56.2642 92.4376 56.821 91.9404 58.2131L93.3374 58.5312C93.5562 57.9893 94.113 57.4673 95.1123 57.4673C96.0718 57.4673 96.564 57.9695 96.564 58.8345V58.8693C96.564 59.4112 96.0072 59.4013 94.635 59.5604C93.1883 59.7294 91.7068 60.1072 91.7068 61.8423C91.7068 63.3438 92.8353 64.169 94.287 64.169ZM94.6102 62.9759C93.77 62.9759 93.1634 62.598 93.1634 61.8622C93.1634 61.0668 93.8694 60.7834 94.7295 60.669C95.2117 60.6044 96.3552 60.4751 96.569 60.2614V61.2457C96.569 62.1506 95.8481 62.9759 94.6102 62.9759ZM103.252 64.1541C105.057 64.1541 106.225 63.0703 106.389 61.5838H104.942C104.753 62.4091 104.112 62.8963 103.262 62.8963C102.004 62.8963 101.194 61.8473 101.194 60.1818C101.194 58.5462 102.019 57.517 103.262 57.517C104.207 57.517 104.783 58.1136 104.942 58.8295H106.389C106.23 57.2884 104.972 56.2642 103.237 56.2642C101.084 56.2642 99.6924 57.8849 99.6924 60.2166C99.6924 62.5185 101.035 64.1541 103.252 64.1541ZM107.979 64H109.465V61.2905L110.206 60.5497L112.801 64H114.626L111.325 59.6399L114.417 56.3636H112.637L109.595 59.5952H109.465V53.8182H107.979V64ZM119.765 59.0533H115.251V60.3409H119.765V59.0533ZM125.038 64.1541C126.703 64.1541 127.881 63.3338 128.219 62.0909L126.812 61.8374C126.544 62.5582 125.898 62.9261 125.052 62.9261C123.78 62.9261 122.925 62.1009 122.885 60.6293H128.314V60.1023C128.314 57.343 126.663 56.2642 124.933 56.2642C122.805 56.2642 121.403 57.8849 121.403 60.2315C121.403 62.603 122.785 64.1541 125.038 64.1541ZM122.89 59.5156C122.949 58.4318 123.735 57.4922 124.943 57.4922C126.097 57.4922 126.852 58.3473 126.857 59.5156H122.89ZM131.45 59.4659C131.45 58.2479 132.195 57.5518 133.229 57.5518C134.239 57.5518 134.85 58.2131 134.85 59.3217V64H136.337V59.1428C136.337 57.2536 135.298 56.2642 133.737 56.2642C132.588 56.2642 131.837 56.7962 131.484 57.6065H131.39V56.3636H129.963V64H131.45V59.4659ZM141.189 64.1491C142.581 64.1491 143.128 63.299 143.396 62.8118H143.521V64H144.972V53.8182H143.486V57.6016H143.396C143.128 57.1293 142.621 56.2642 141.199 56.2642C139.354 56.2642 137.997 57.7209 137.997 60.1967C137.997 62.6676 139.335 64.1491 141.189 64.1491ZM141.517 62.8814C140.19 62.8814 139.499 61.7131 139.499 60.1818C139.499 58.6655 140.175 57.527 141.517 57.527C142.815 57.527 143.511 58.5859 143.511 60.1818C143.511 61.7876 142.8 62.8814 141.517 62.8814Z" fill="#A0A0A0"/>
<path d="M651.725 64H653.261V59.5604H657.587V58.2429H653.261V55.1406H658.039V53.8182H651.725V64ZM659.713 64H661.2V59.3366C661.2 58.3374 661.97 57.6165 663.024 57.6165C663.332 57.6165 663.68 57.6712 663.8 57.706V56.2841C663.651 56.2642 663.357 56.2493 663.168 56.2493C662.274 56.2493 661.508 56.7564 661.229 57.5767H661.15V56.3636H659.713V64ZM668.029 64.1541C670.182 64.1541 671.589 62.5781 671.589 60.2166C671.589 57.8402 670.182 56.2642 668.029 56.2642C665.877 56.2642 664.47 57.8402 664.47 60.2166C664.47 62.5781 665.877 64.1541 668.029 64.1541ZM668.034 62.9062C666.627 62.9062 665.971 61.6783 665.971 60.2116C665.971 58.75 666.627 57.5071 668.034 57.5071C669.431 57.5071 670.088 58.75 670.088 60.2116C670.088 61.6783 669.431 62.9062 668.034 62.9062ZM674.735 59.4659C674.735 58.2479 675.481 57.5518 676.515 57.5518C677.524 57.5518 678.135 58.2131 678.135 59.3217V64H679.622V59.1428C679.622 57.2536 678.583 56.2642 677.022 56.2642C675.873 56.2642 675.123 56.7962 674.77 57.6065H674.675V56.3636H673.248V64H674.735V59.4659ZM685.18 56.3636H683.614V54.5341H682.128V56.3636H681.009V57.5568H682.128V62.0661C682.123 63.4531 683.182 64.1243 684.355 64.0994C684.827 64.0945 685.145 64.005 685.319 63.9403L685.051 62.7124C684.951 62.7322 684.767 62.777 684.529 62.777C684.047 62.777 683.614 62.6179 683.614 61.7578V57.5568H685.18V56.3636ZM691.064 59.0533H686.55V60.3409H691.064V59.0533ZM696.336 64.1541C698.002 64.1541 699.18 63.3338 699.518 62.0909L698.111 61.8374C697.843 62.5582 697.196 62.9261 696.351 62.9261C695.079 62.9261 694.223 62.1009 694.184 60.6293H699.613V60.1023C699.613 57.343 697.962 56.2642 696.232 56.2642C694.104 56.2642 692.702 57.8849 692.702 60.2315C692.702 62.603 694.084 64.1541 696.336 64.1541ZM694.189 59.5156C694.248 58.4318 695.034 57.4922 696.242 57.4922C697.395 57.4922 698.151 58.3473 698.156 59.5156H694.189ZM702.748 59.4659C702.748 58.2479 703.494 57.5518 704.528 57.5518C705.538 57.5518 706.149 58.2131 706.149 59.3217V64H707.636V59.1428C707.636 57.2536 706.597 56.2642 705.035 56.2642C703.887 56.2642 703.136 56.7962 702.783 57.6065H702.689V56.3636H701.262V64H702.748V59.4659ZM712.488 64.1491C713.88 64.1491 714.427 63.299 714.695 62.8118H714.82V64H716.271V53.8182H714.785V57.6016H714.695C714.427 57.1293 713.92 56.2642 712.498 56.2642C710.653 56.2642 709.296 57.7209 709.296 60.1967C709.296 62.6676 710.633 64.1491 712.488 64.1491ZM712.816 62.8814C711.489 62.8814 710.797 61.7131 710.797 60.1818C710.797 58.6655 711.474 57.527 712.816 57.527C714.114 57.527 714.81 58.5859 714.81 60.1818C714.81 61.7876 714.099 62.8814 712.816 62.8814Z" fill="#A0A0A0"/>
</svg>
