<svg width="768" height="844" viewBox="0 0 768 844" fill="none" xmlns="http://www.w3.org/2000/svg">
<rect width="768" height="844" fill="#465DFF"/>
<path opacity="0.7" fill-rule="evenodd" clip-rule="evenodd" d="M249.902 753.31C243.665 757.371 237.38 760.812 231.146 763.592C206.509 774.575 183.001 775.107 166.059 763.378C162.191 760.701 158.804 757.48 155.899 753.784C173.87 741.718 191.328 724.617 206.042 703.474C241.454 652.59 249.325 595.042 227.502 564.719C233.754 560.645 240.054 557.195 246.303 554.408C270.939 543.425 294.447 542.893 311.39 554.622C315.248 557.292 318.628 560.504 321.527 564.188C303.541 576.255 286.067 593.366 271.341 614.526C235.918 665.426 228.053 722.995 249.902 753.31ZM226.301 563.117C257.607 542.681 290.258 537.56 312.532 552.98C316.614 555.806 320.169 559.198 323.204 563.078C354.481 542.674 387.094 537.57 409.347 552.98C413.44 555.815 417.005 559.22 420.044 563.117C451.35 542.681 484.001 537.56 506.276 552.98C510.357 555.806 513.912 559.198 516.947 563.078C548.224 542.674 580.836 537.57 603.089 552.98C607.183 555.815 610.747 559.221 613.787 563.117C645.093 542.681 677.744 537.56 700.019 552.98C715.32 563.573 723.227 582.13 724 604.507H721.998C721.227 582.577 713.477 564.73 698.876 554.622C681.934 542.893 658.426 543.425 633.789 554.408C627.54 557.195 621.24 560.645 614.988 564.72C636.811 595.042 628.94 652.59 593.528 703.474C578.814 724.617 561.356 741.718 543.386 753.783C546.29 757.48 549.677 760.701 553.545 763.378C570.488 775.107 593.996 774.575 618.632 763.592C629.417 758.784 640.35 751.996 650.933 743.442V746.003C616.128 773.61 577.617 782.475 552.403 765.02C548.311 762.187 544.748 758.785 541.709 754.893C510.419 775.321 477.786 780.437 455.522 765.02C451.439 762.192 447.882 758.796 444.847 754.912C413.554 775.324 380.924 780.433 358.659 765.02C354.568 762.187 351.005 758.786 347.966 754.894C316.676 775.321 284.044 780.437 261.78 765.02C257.696 762.192 254.139 758.796 251.104 754.911C219.812 775.324 187.181 780.433 164.916 765.02C160.825 762.187 157.262 758.786 154.223 754.894C122.933 775.321 90.3 780.437 68.0366 765.02C32.5677 740.458 36.8484 673.079 77.5978 614.526C118.347 555.973 180.134 528.418 215.603 552.98C219.697 555.815 223.261 559.221 226.301 563.117ZM153.021 753.291C146.777 757.361 140.485 760.808 134.243 763.591C109.615 774.575 86.1155 775.107 69.179 763.378C52.2426 751.65 44.5273 729.501 46.2335 702.644C47.937 675.831 59.0404 644.693 79.242 615.665C99.4437 586.637 124.808 565.374 149.396 554.409C174.024 543.425 197.524 542.893 214.461 554.622C218.331 557.302 221.72 560.526 224.625 564.227C206.653 576.291 189.196 593.389 174.481 614.526C139.053 665.416 131.181 722.972 153.021 753.291ZM154.695 752.185C145.734 739.784 141.844 722.501 143.105 702.644C144.81 675.831 155.917 644.692 176.125 615.664C190.741 594.67 208.058 577.738 225.828 565.826C234.781 578.226 238.667 595.505 237.406 615.356C235.703 642.169 224.599 673.307 204.398 702.335C189.783 723.336 172.465 740.272 154.695 752.185ZM251.576 752.204C242.608 739.802 238.715 722.511 239.977 702.644C241.681 675.831 252.784 644.693 272.986 615.665C287.613 594.647 304.947 577.7 322.732 565.785C330.033 575.872 333.973 589.194 334.511 604.507H336.514C335.975 588.906 331.969 575.162 324.407 564.68C330.637 560.623 336.913 557.186 343.14 554.409C367.768 543.425 391.268 542.893 408.204 554.622C412.075 557.302 415.463 560.526 418.368 564.227C400.397 576.291 382.939 593.389 368.224 614.526C332.796 665.416 324.924 722.972 346.765 753.292C340.52 757.361 334.229 760.808 327.987 763.591C303.359 774.575 279.859 775.107 262.923 763.378C259.062 760.705 255.681 757.49 252.781 753.802C256.363 751.399 259.923 748.797 263.446 746.003V743.442C259.529 746.608 255.564 749.533 251.576 752.204ZM528.255 604.507C527.717 589.194 523.776 575.872 516.475 565.785C498.689 577.7 481.355 594.647 466.728 615.665C446.526 644.693 435.423 675.831 433.719 702.644C432.457 722.511 436.351 739.802 445.319 752.204C449.307 749.533 453.272 746.609 457.19 743.442V746.003C453.666 748.797 450.105 751.4 446.524 753.802C449.424 757.491 452.805 760.705 456.665 763.378C473.601 775.107 497.101 774.575 521.729 763.591C527.971 760.808 534.263 757.361 540.507 753.291C518.668 722.972 526.539 665.416 561.967 614.526C576.682 593.389 594.139 576.292 612.111 564.227C609.206 560.527 605.817 557.302 601.946 554.622C585.01 542.893 561.51 543.425 536.882 554.409C530.656 557.186 524.379 560.623 518.149 564.679C525.712 575.162 529.718 588.906 530.257 604.507H528.255ZM505.133 554.622C508.991 557.292 512.37 560.503 515.269 564.187C497.283 576.254 479.81 593.366 465.084 614.526C429.66 665.426 421.796 722.996 443.645 753.31C437.407 757.371 431.123 760.812 424.889 763.592C400.252 774.575 376.745 775.107 359.802 763.378C355.934 760.701 352.547 757.48 349.643 753.784C367.614 741.719 385.071 724.617 399.786 703.474C435.198 652.59 443.069 595.041 421.245 564.719C427.497 560.645 433.797 557.194 440.046 554.408C464.682 543.425 488.19 542.893 505.133 554.622ZM591.883 702.335C577.269 723.336 559.951 740.272 542.181 752.185C533.22 739.784 529.33 722.501 530.592 702.644C532.296 675.831 543.403 644.692 563.611 615.664C578.227 594.671 595.544 577.738 613.314 565.826C622.267 578.226 626.153 595.505 624.892 615.356C623.188 642.169 612.085 673.307 591.883 702.335ZM348.438 752.185C366.209 740.272 383.526 723.336 398.141 702.335C418.343 673.307 429.446 642.169 431.15 615.356C432.411 595.504 428.525 578.225 419.572 565.825C401.801 577.738 384.484 594.67 369.868 615.664C349.66 644.692 338.553 675.831 336.849 702.644C335.587 722.501 339.477 739.784 348.438 752.185Z" fill="white"/>
</svg>
